<svg width="73" height="78" viewBox="0 0 73 78" fill="none" xmlns="http://www.w3.org/2000/svg">
<g filter="url(#filter0_d_50_5)">
<rect x="5" width="63" height="68" rx="13" fill="#293241"/>
</g>
<path d="M37 21.5723C50.9262 21.5723 61.635 27.4949 61.635 34C61.635 40.5051 50.9181 46.4277 37 46.4277C23.0738 46.4277 12.365 40.5051 12.365 34C12.365 27.4949 23.0819 21.5723 37 21.5723ZM37 20.1942C22.6431 20.1942 11 26.3711 11 34C11 41.6289 22.6431 47.8059 37 47.8059C51.3569 47.8059 63 41.6289 63 34C63 26.3711 51.3569 20.1942 37 20.1942ZM28.7287 32.8926C28.0869 36.2149 25.82 35.8703 23.0331 35.8703L24.1462 30.0789C27.2337 30.0789 29.33 29.7426 28.7287 32.8926ZM18.9137 41.7356H21.8956L22.6025 38.0606C25.9419 38.0606 28.0138 38.3067 29.9312 36.4938C32.0519 34.525 32.6044 31.0223 31.0931 29.2668C30.305 28.3481 29.0375 27.8969 27.315 27.8969H21.5706L18.9137 41.7356ZM34.0019 24.2137H36.9675L36.2606 27.8887C38.82 27.8887 41.1925 27.7 42.3381 28.7664C43.5406 29.882 42.9637 31.3094 41.6637 38.0442H38.6575C39.9087 31.5309 40.1444 30.9895 39.6894 30.4973C39.2506 30.0215 38.2512 30.1199 35.8381 30.1199L34.3106 38.0442H31.345L34.0019 24.2137ZM52.0312 32.8926C51.3812 36.2641 49.0494 35.8703 46.3356 35.8703L47.4487 30.0789C50.5525 30.0789 52.6325 29.7426 52.0312 32.8926ZM42.2162 41.7356H45.2062L45.9131 38.0606C49.4231 38.0606 51.365 38.2656 53.2419 36.4938C55.3625 34.525 55.915 31.0223 54.4037 29.2668C53.6156 28.3481 52.3481 27.8969 50.6256 27.8969H44.8812L42.2162 41.7356Z" fill="#EE6C4D"/>
<defs>
<filter id="filter0_d_50_5" x="0" y="0" width="73" height="78" filterUnits="userSpaceOnUse" color-interpolation-filters="sRGB">
<feFlood flood-opacity="0" result="BackgroundImageFix"/>
<feColorMatrix in="SourceAlpha" type="matrix" values="0 0 0 0 0 0 0 0 0 0 0 0 0 0 0 0 0 0 127 0" result="hardAlpha"/>
<feOffset dy="5"/>
<feGaussianBlur stdDeviation="2.5"/>
<feComposite in2="hardAlpha" operator="out"/>
<feColorMatrix type="matrix" values="0 0 0 0 0 0 0 0 0 0 0 0 0 0 0 0 0 0 0.25 0"/>
<feBlend mode="normal" in2="BackgroundImageFix" result="effect1_dropShadow_50_5"/>
<feBlend mode="normal" in="SourceGraphic" in2="effect1_dropShadow_50_5" result="shape"/>
</filter>
</defs>
</svg>
