<svg width="73" height="78" viewBox="0 0 73 78" fill="none" xmlns="http://www.w3.org/2000/svg">
<g filter="url(#filter0_d_50_4)">
<rect x="5" width="63" height="68" rx="13" fill="#293241"/>
</g>
<path d="M32.36 39.68C32.36 41.04 32.2 42.32 31.88 43.52C31.5867 44.72 31.0533 45.7733 30.28 46.68C29.5333 47.56 28.5067 48.2667 27.2 48.8C25.92 49.3067 24.2933 49.56 22.32 49.56C20.5067 49.56 18.9467 49.3467 17.64 48.92C16.3333 48.4667 15.2533 47.9467 14.4 47.36L16.48 42.52C17.2533 42.9733 18.08 43.3733 18.96 43.72C19.84 44.0667 20.8 44.24 21.84 44.24C23.36 44.24 24.4533 43.8667 25.12 43.12C25.7867 42.3733 26.12 41.12 26.12 39.36V21.28H32.36V39.68ZM45.9319 44.24C46.8119 44.24 47.5319 44.1733 48.0919 44.04C48.6785 43.88 49.1452 43.68 49.4919 43.44C49.8385 43.1733 50.0785 42.8667 50.2119 42.52C50.3452 42.1733 50.4119 41.7867 50.4119 41.36C50.4119 40.4533 49.9852 39.7067 49.1319 39.12C48.2785 38.5067 46.8119 37.8533 44.7319 37.16C43.8252 36.84 42.9185 36.48 42.0119 36.08C41.1052 35.6533 40.2919 35.1333 39.5719 34.52C38.8519 33.88 38.2652 33.12 37.8119 32.24C37.3585 31.3333 37.1319 30.24 37.1319 28.96C37.1319 27.68 37.3719 26.5333 37.8519 25.52C38.3319 24.48 39.0119 23.6 39.8919 22.88C40.7719 22.16 41.8385 21.6133 43.0919 21.24C44.3452 20.84 45.7585 20.64 47.3319 20.64C49.1985 20.64 50.8119 20.84 52.1719 21.24C53.5319 21.64 54.6519 22.08 55.5319 22.56L53.7319 27.48C52.9585 27.08 52.0919 26.7333 51.1319 26.44C50.1985 26.12 49.0652 25.96 47.7319 25.96C46.2385 25.96 45.1585 26.1733 44.4919 26.6C43.8519 27 43.5319 27.6267 43.5319 28.48C43.5319 28.9867 43.6519 29.4133 43.8919 29.76C44.1319 30.1067 44.4652 30.4267 44.8919 30.72C45.3452 30.9867 45.8519 31.24 46.4119 31.48C46.9985 31.6933 47.6385 31.92 48.3319 32.16C49.7719 32.6933 51.0252 33.2267 52.0919 33.76C53.1585 34.2667 54.0385 34.8667 54.7319 35.56C55.4519 36.2533 55.9852 37.0667 56.3319 38C56.6785 38.9333 56.8519 40.0667 56.8519 41.4C56.8519 43.9867 55.9452 46 54.1319 47.44C52.3185 48.8533 49.5852 49.56 45.9319 49.56C44.7052 49.56 43.5985 49.48 42.6119 49.32C41.6252 49.1867 40.7452 49.0133 39.9719 48.8C39.2252 48.5867 38.5719 48.36 38.0119 48.12C37.4785 47.88 37.0252 47.6533 36.6519 47.44L38.4119 42.48C39.2385 42.9333 40.2519 43.3467 41.4519 43.72C42.6785 44.0667 44.1719 44.24 45.9319 44.24Z" fill="#EE6C4D"/>
<defs>
<filter id="filter0_d_50_4" x="0" y="0" width="73" height="78" filterUnits="userSpaceOnUse" color-interpolation-filters="sRGB">
<feFlood flood-opacity="0" result="BackgroundImageFix"/>
<feColorMatrix in="SourceAlpha" type="matrix" values="0 0 0 0 0 0 0 0 0 0 0 0 0 0 0 0 0 0 127 0" result="hardAlpha"/>
<feOffset dy="5"/>
<feGaussianBlur stdDeviation="2.5"/>
<feComposite in2="hardAlpha" operator="out"/>
<feColorMatrix type="matrix" values="0 0 0 0 0 0 0 0 0 0 0 0 0 0 0 0 0 0 0.25 0"/>
<feBlend mode="normal" in2="BackgroundImageFix" result="effect1_dropShadow_50_4"/>
<feBlend mode="normal" in="SourceGraphic" in2="effect1_dropShadow_50_4" result="shape"/>
</filter>
</defs>
</svg>
