<svg width="19" height="97" viewBox="0 0 19 97" fill="none" xmlns="http://www.w3.org/2000/svg">
<path d="M5.23469 0H2.13265H0L9.11224 17L19 0H13.7653L9.11224 7.87805L5.23469 0Z" fill="#EE6C4D"/>
<path d="M5.23469 20H2.13265H0L9.11224 37L19 20H13.7653L9.11224 27.878L5.23469 20Z" fill="#EE6C4D"/>
<path d="M5.23469 40H2.13265H0L9.11224 57L19 40H13.7653L9.11224 47.878L5.23469 40Z" fill="#EE6C4D"/>
<path d="M5.23469 60H2.13265H0L9.11224 77L19 60H13.7653L9.11224 67.878L5.23469 60Z" fill="#EE6C4D"/>
<path d="M5.23469 80H2.13265H0L9.11224 97L19 80H13.7653L9.11224 87.878L5.23469 80Z" fill="#EE6C4D"/>
</svg>
